PathFileType	4	(X/Y/Z)	Patient4_TMGait_0pt5_02_right_20.trc.trc
DataRate	CameraRate	NumFrames	NumMarkers	Units	OrigDataRate	OrigDataStartFrame	OrigNumFrames
76.086956521739	76.086956521739	7	33	mm	76.086956521739	36	       141
Frame#	Time	Sacral			L.Shoulder			Chest			R.Shoulder			Neck			R.ASIS			L.ASIS			R.Thigh.Superior			R.Thigh.Lateral			R.Thigh.Inferior			R.Patella			L.Thigh.Superior			L.Thigh.Lateral			L.Thigh.Inferior			L.Patella			L.Shank.Superior			L.Shank.Lateral			L.Shank.Inferior			R.Shank.Superior			R.Shank.Lateral			R.Shank.Inferior			R.Heel			R.Midfoot.Superior			R.Midfoot.Lateral			R.Toe			L.Heel			L.Midfoot.Lateral			L.Midfoot.Superior			L.Toe			L.Elbow			L.Wrist			R.Elbow			R.Wrist			
		X1	Y1	Z1	X2	Y2	Z2	X3	Y3	Z3	X4	Y4	Z4	X5	Y5	Z5	X6	Y6	Z6	X7	Y7	Z7	X8	Y8	Z8	X9	Y9	Z9	X10	Y10	Z10	X11	Y11	Z11	X12	Y12	Z12	X13	Y13	Z13	X14	Y14	Z14	X15	Y15	Z15	X16	Y16	Z16	X17	Y17	Z17	X18	Y18	Z18	X19	Y19	Z19	X20	Y20	Z20	X21	Y21	Z21	X22	Y22	Z22	X23	Y23	Z23	X24	Y24	Z24	X25	Y25	Z25	X26	Y26	Z26	X27	Y27	Z27	X28	Y28	Z28	X29	Y29	Z29	X30	Y30	Z30	X31	Y31	Z31	X32	Y32	Z32	X33	Y33	Z33	

36	26.410000000000	615.233734915336	1009.302884705112	497.028201917433	838.633538377238	1424.428703751985	327.381176916748	923.954014983665	1347.964668866188	495.558871850434	832.538499666580	1426.996867631371	664.039286315009	829.875798012309	1484.884885081627	479.516600365824	834.281578477224	932.875208087683	626.629655287982	834.130438890645	948.662017561925	353.696181245378	896.486912867947	746.850115109798	597.916675718357	825.008863150927	632.805766002619	653.122986348312	909.407938581388	588.573553542869	573.760315844035	921.469201042233	499.393815638276	579.430254416736	883.276637073203	739.659652956821	381.876713713083	811.420868103751	623.183268974871	310.220204513469	899.902053858557	543.928467156554	374.254487817048	896.196019119581	455.787086154173	372.861493056324	825.622047269039	397.944320397806	363.094049649611	686.459128003569	362.585980408063	305.824907180637	661.112145692861	236.736142031334	362.272721734617	897.464267424519	409.411009240062	585.132777920934	832.444043548427	301.688642678283	645.782426797417	879.219509756893	209.498155839847	582.483190564545	750.577094916879	43.707842071799	552.416185055884	922.928207624402	97.803995893360	586.197903608136	834.526246177600	36.976534337512	626.259364172281	1042.822724548061	42.102668030756	613.728396709444	464.513271065753	186.454364555055	391.253474806427	521.121332874522	140.969839268359	310.516537652529	625.060062777238	137.729408598564	335.738116965841	693.760631023646	29.471698151074	304.117131007622	791.020401324487	1073.589085593531	206.180823197343	929.390780686337	849.898870596264	200.599451033787	703.209443536044	1102.524956152527	766.802905597235	710.094135466962	840.416251279465	762.979110073094	
37	26.423142857143	615.399877041768	1010.574320480372	499.685032299531	839.344769983966	1424.756443333816	329.023958089021	924.962047984102	1348.607631097891	497.189068112140	834.025207363820	1428.092581066227	665.722101042169	831.009234380374	1485.612961874275	481.026653008473	834.266360336814	933.850193413182	629.391563844173	834.066532030275	949.265816540115	356.629434974570	894.849179785214	746.317083854715	601.047584739937	821.988089352026	632.807448121296	655.233073302681	905.946887314833	588.064723463078	575.659697061221	917.236935044317	498.848921131013	580.842499403721	886.807652482544	743.234810495269	385.478926156866	819.193038400959	625.542929281330	312.496796389597	909.148142871069	548.199025428113	377.389059169696	907.066705461317	459.302869993696	375.675189953072	835.738872375813	401.095218836632	365.446511941180	695.920507806270	368.419017308852	307.691889024219	668.389077471022	242.496791264288	363.508854036432	892.689730755069	409.140411046565	586.350459662355	827.033566462931	301.619931659630	646.660884105799	873.369899960781	209.420094962354	583.038055656645	744.100933867857	43.697108932739	552.578425268385	916.443888178287	97.876279160347	586.503544619142	828.027262365085	36.972928512626	626.421102853002	1036.297954409797	42.215250231256	613.946118159719	470.620960731290	197.799358714027	391.350212283284	526.350922962491	150.046231338591	311.033925516213	630.371871651153	142.648558938582	336.976505611300	694.880079990256	29.253410503614	305.781078429941	790.050820831526	1073.164827139258	210.644444073577	916.288151853697	842.360447157387	203.853026318432	709.572262772800	1102.027641529812	770.825811007776	726.117624606330	840.302665104016	768.101199985170	
38	26.436285714286	615.372454745705	1011.825296582641	502.249295198219	839.934061252698	1424.930596345203	330.474654017572	925.873915911402	1349.134036320111	498.633618205376	835.529951301749	1429.188775661604	667.222181081253	832.086064595688	1486.261112336633	482.311813038861	834.038604184095	934.716276247152	632.064794260524	833.761550866095	949.916979757714	359.441837147263	893.048064838126	745.808952927301	603.887751083642	818.854472269142	632.759528674145	657.121563274020	902.406455197643	587.558759614804	577.359067499329	912.874037338598	498.299653671827	582.043127691214	889.804826591187	746.893275323418	389.087284892114	826.405703388344	628.237026639588	314.766545519074	917.468261295103	552.743978673341	380.746446951916	917.121472551872	463.224945463244	378.661874218067	845.393105436948	404.528307771694	367.828958941971	705.244867480125	373.547059118613	309.518410835369	676.409191002543	247.405941273272	364.675173556682	887.838989990346	408.857070096438	587.393238326279	821.572958760605	301.555155538451	647.431954488744	867.467233992227	209.331380304833	583.508211905859	737.563627149486	43.704992464894	552.711007004166	909.904922203646	97.863358173670	586.776920589710	821.468030941346	36.961944290053	626.559539964108	1029.723105574451	42.262473693180	614.129139455145	477.983409495921	206.268575182236	391.317998668808	533.304249329210	156.968295300663	311.425343040970	637.270357448073	146.795412703392	338.056581649172	698.944835021579	29.407566052169	307.248890454169	789.019715066825	1072.701606823285	214.718364958045	902.850576691720	835.570719808549	206.887354224486	715.947865435240	1101.710134342253	774.845436140388	742.913287090321	840.835764261784	773.251725925419	
39	26.449428571429	615.169282991854	1013.021089153555	504.759848944303	840.404055783483	1424.945103551477	331.754512674555	926.691660027241	1349.517099389858	499.906702392590	837.066307734562	1430.262226531227	668.545586363926	833.124187432455	1486.809601480496	483.391636766550	833.649332636487	935.457406438134	634.627509564932	833.189583187450	950.626328099625	362.093465098866	891.179116119761	745.361334046418	606.352969791826	815.753779766341	632.680321849246	658.767234409435	898.907802139301	587.072114597919	578.822652444719	908.525419053323	497.745437850585	583.017400736878	892.274232766496	750.605646978588	392.668181418500	833.040122315665	631.212165801391	317.040093129737	924.872059804940	557.489295173989	384.288677009619	926.353788239937	467.489430110934	381.765559271078	854.613709192030	408.162412989657	370.187655833811	714.445411945862	377.762820574769	311.308996333985	685.352373653828	251.222133990055	365.743929193072	883.030134960539	408.550683845388	588.247947577404	816.161179702440	301.496641593752	648.088180061423	861.564918066106	209.218315647992	583.883204343895	730.970156681525	43.729844048827	552.820386204868	903.319836562757	97.782414071831	587.003605910834	814.856121868005	36.949404497358	626.678996387611	1023.108592177360	42.245817362878	614.278374481582	486.787010310743	211.367752196888	391.252274225860	542.162733009479	161.380246508544	311.691243853130	646.026150257145	149.924533459983	338.892255202532	706.398483437620	29.921605497600	308.289841250633	787.801427001630	1072.204250268614	218.419252794494	889.198503311588	829.605743648443	209.669953062954	722.308134741851	1101.576061288997	778.860329555484	760.406350569119	842.126614923348	778.343320606378	
40	26.462571428571	614.807688964208	1014.132125575343	507.255039136485	840.746211311143	1424.801529142060	332.886020394264	927.414027667560	1349.737352993945	501.019330690241	838.640259817567	1431.285125481931	669.700520238147	834.133197599592	1487.240941856824	484.289349554845	833.147514031285	936.062900157611	637.047077256784	832.334352458271	951.396857278668	364.544013737752	889.309282761292	744.989300458322	608.377726356302	812.798249696368	632.583546123194	660.165448838366	895.532251833353	586.612543354197	580.025765220807	904.297022205204	497.181672431257	583.766363750506	894.239383846425	754.344119334141	396.175387647956	839.083330087993	634.402105607462	319.311666388038	931.401844536592	562.359610569671	387.943581160902	934.787899386829	472.033012668702	384.907901607670	863.459484305083	411.917818884697	372.452431119206	723.565375539043	380.905403973207	313.064274388842	695.398469384483	253.770216637948	366.687728473458	878.346977225742	408.209341134860	588.916387373814	810.867008259118	301.440422955625	648.627933936582	855.704521951271	209.069072096783	584.160144627144	724.333462987575	43.765478418278	552.911030655259	896.701678028792	97.657333491505	587.176374730266	808.206137014101	36.939437132438	626.782925641419	1016.468636415387	42.177217128703	614.397767928447	497.241763671566	212.798018864078	391.266750886387	553.081718323752	163.090112206278	311.846029576906	656.864890147017	151.858659329317	339.412804179941	717.524532137448	30.747078474151	308.673956990523	786.268214325561	1071.680938741140	221.771608178864	875.461419272948	824.502306638938	212.182277570059	728.638315966983	1101.609796843690	782.869345562282	778.531352880712	844.266814261422	783.281452965069	
41	26.475714285714	614.301578682387	1015.136277054423	509.765248109917	840.941343808566	1424.508132670625	333.891158120331	928.037299553305	1349.784123226638	501.978291209798	840.252235095905	1432.226615921256	670.699163703455	835.113647237035	1487.541084709978	485.030456483578	832.575654928947	936.525712606691	639.284349572100	831.192762812979	952.222161591948	366.757898254747	887.474818231291	744.687259053970	609.924365310018	810.059903201486	632.477053118058	661.327056196476	892.322168247769	586.178941668237	580.959918678962	900.253291020259	496.600785885060	584.307283255797	895.737322577372	758.079211699278	399.549119058332	844.516737069105	637.728148938770	321.557913841820	937.116132102694	567.278411911526	391.608330787396	942.462333859213	476.792259019232	387.992913441138	871.997203546256	415.722106648854	374.544787747252	732.664626984579	382.877735161547	314.776082800977	706.694673095501	254.964211696348	367.481076264348	873.836897734479	407.820795150180	589.413853437429	805.727861797452	301.377677240480	649.055847146634	849.913563583361	208.873924403550	584.343219303123	717.670034746889	43.803344601579	552.985238858089	890.064877895396	97.512184251360	587.296025294550	801.535049457520	36.934209446527	626.873623918872	1009.817878114268	42.072526568633	614.493249711277	509.547665146070	210.488032977371	391.460775492701	566.174095450972	162.081562028177	311.911596491229	669.934753864897	152.512772635055	339.577705110084	732.416380691513	31.824459829628	308.232876738428	784.304069347997	1071.142093769862	224.802407065732	861.775225216235	820.257377312325	214.420921204455	734.938041962365	1101.779111259816	786.868701128958	797.221906640194	847.325195533367	787.970442487717	
42	26.488857142857	613.659136389619	1016.020870222624	512.307399579704	840.963353459823	1424.079480963571	334.789851041840	928.556679723188	1349.656402179388	502.786083456345	841.899387191209	1433.055983898695	671.558003127877	836.058236905518	1487.701274542811	485.641066102063	831.966672939800	936.841507891166	641.300276630649	829.776044157354	953.086990750807	368.708350267419	885.685031968188	744.432568389585	610.988953170640	807.569287677378	632.362961576561	662.275330623854	889.285892813016	585.762428946756	581.634674401450	896.419477448383	495.994146174541	584.670412485410	896.813529334050	761.776970585178	402.718585596648	849.311385387066	641.101805113858	323.740257969134	942.075004200690	572.168388820636	395.158611223016	949.415797127091	481.703508087065	390.916548567594	880.282400839634	419.514525053734	376.391523034119	741.811556618716	383.653244443322	316.422365707369	719.330818410976	254.819119812311	368.105342805460	869.512927427804	407.374632951815	589.765273150178	800.752813810526	301.297276642731	649.382193532421	844.205053031654	208.626055535876	584.442333187882	710.996342715544	43.834865316665	553.043556650433	883.422563337744	97.366878981747	587.369934446380	794.858563399412	36.934050243419	626.952199268176	1003.168869165399	41.946833179867	614.571685553935	523.860860500211	204.601142384592	391.886677079925	581.502152667056	158.505082543707	311.910689175987	685.287943254276	151.905787423182	339.392029611411	750.978221006888	33.109615493996	306.923421483287	781.816850172810	1070.600835771435	227.537556610074	848.277660352098	816.832307824252	216.396555342062	741.222452041427	1102.040824768713	790.849879252473	816.401199630063	851.345773513826	792.319137527665	
